<?xml version="1.0" encoding="utf-8"?>
<!-- Generator: Adobe Illustrator 16.0.0, SVG Export Plug-In . SVG Version: 6.00 Build 0)  -->
<!DOCTYPE svg PUBLIC "-//W3C//DTD SVG 1.1//EN" "http://www.w3.org/Graphics/SVG/1.1/DTD/svg11.dtd">
<svg version="1.1" id="Capa_1" xmlns="http://www.w3.org/2000/svg" xmlns:xlink="http://www.w3.org/1999/xlink" x="0px" y="0px"
	 width="63px" height="73.5px" viewBox="0 0 63 73.5" enable-background="new 0 0 63 73.5" xml:space="preserve">
<g>
	<defs>
		<rect id="SVGID_1_" width="63" height="73.5"/>
	</defs>
	<clipPath id="SVGID_2_">
		<use xlink:href="#SVGID_1_"  overflow="visible"/>
	</clipPath>
	<path clip-path="url(#SVGID_2_)" fill="#FFFFFF" d="M32,34.5c0,2.209-1.791,4-4,4s-4-1.791-4-4s1.791-4,4-4S32,32.291,32,34.5"/>
	<path clip-path="url(#SVGID_2_)" fill="#FFFFFF" d="M53.253,23.297c2.779-2.232,4.346-5.912,3.532-9.901
		c-0.796-3.9-3.981-7-7.897-7.722c-3.308-0.61-6.379,0.425-8.576,2.407C39.416,3.477,35.366,0,30.5,0
		c-5.494,0-9.949,4.431-9.996,9.914c-2.037-1.748-4.778-2.698-7.747-2.338c-4.445,0.538-8.074,4.112-8.665,8.551
		c-0.63,4.728,2.049,8.923,6.045,10.598C3.965,34.695,0,43.5,0,43.5c9.569-0.319,15.77,2.317,19.793,6.05
		c-3.34,0.248-6.202,2.202-7.691,5.015C8.705,55,6.067,57.865,6.001,61.365c-0.041,2.199,1.117,4.207,2.846,5.567
		c1.99,1.567,3.787,1.745,5.416,1.447c0.822,2.952,3.524,5.12,6.737,5.12c2.576,0,4.82-1.395,6.036-3.467
		C27.017,70.325,27,70.5,27,70.5h24.439C57.824,70.5,63,65.324,63,58.939V51.5C62.22,38.244,55.969,27.422,53.253,23.297 M48.939,67
		H28.5c1-16-13-23-13-23l-4-14c10-16,28-11,28-11c12.774,2.254,18.208,19.753,20.12,28.314c0.596,2.667,0.88,5.393,0.88,8.125
		C60.5,61.824,55.324,67,48.939,67"/>
</g>
</svg>
