<?xml version="1.0" encoding="utf-8"?>
<!-- Generator: Adobe Illustrator 16.0.0, SVG Export Plug-In . SVG Version: 6.00 Build 0)  -->
<!DOCTYPE svg PUBLIC "-//W3C//DTD SVG 1.1//EN" "http://www.w3.org/Graphics/SVG/1.1/DTD/svg11.dtd">
<svg version="1.1" id="Capa_1" xmlns="http://www.w3.org/2000/svg" xmlns:xlink="http://www.w3.org/1999/xlink" x="0px" y="0px"
	 width="200px" height="197px" viewBox="0 0 200 197" enable-background="new 0 0 200 197" xml:space="preserve">
<g>
	<defs>
		<rect id="SVGID_1_" width="200" height="197"/>
	</defs>
	<clipPath id="SVGID_2_">
		<use xlink:href="#SVGID_1_"  overflow="visible"/>
	</clipPath>
	<path clip-path="url(#SVGID_2_)" fill="#FFFFFF" stroke="#FFFFFF" stroke-miterlimit="10" d="M175,156c8.8,0,16,7.2,16,16
		s-7.2,16-16,16H25c-8.8,0-16-7.2-16-16s7.2-16,16-16H175 M175,147H25c-13.785,0-25,11.215-25,25s11.215,25,25,25h150
		c13.785,0,25-11.215,25-25S188.785,147,175,147"/>
	<path clip-path="url(#SVGID_2_)" fill="none" stroke="#FFFFFF" stroke-width="8" stroke-miterlimit="10" d="M64,76
		c-16.5,0-30,13.5-30,30v46h60v-46C94,89.5,80.5,76,64,76z"/>
	<path clip-path="url(#SVGID_2_)" fill="none" stroke="#FFFFFF" stroke-width="8" stroke-miterlimit="10" d="M118,150.667v-12.334
		c0-7.916,6.417-14.333,14.333-14.333h21.334c7.916,0,14.333,6.417,14.333,14.333v12.334"/>
	<path clip-path="url(#SVGID_2_)" fill="#FFFFFF" d="M94,106c0,16.568-13.432,30-30,30s-30-13.432-30-30c0-16.568,13.432-30,30-30
		S94,89.432,94,106"/>
	
		<circle clip-path="url(#SVGID_2_)" fill="#FFFFFF" stroke="#FFFFFF" stroke-width="5" stroke-miterlimit="10" cx="64" cy="106" r="30"/>
	<path clip-path="url(#SVGID_2_)" fill="none" stroke="#FFFFFF" stroke-width="7" stroke-miterlimit="10" d="M46.884,58.713
		C44.081,67.016,36.247,73,27,73c-0.221,0-0.435-0.027-0.655-0.034L38.75,90.812c4.618-7.189,12.216-12.275,21.053-13.513
		L46.884,58.713z"/>
	<path clip-path="url(#SVGID_2_)" fill="#FFFFFF" d="M48,52c0,11.598-9.402,21-21,21S6,63.598,6,52s9.402-21,21-21S48,40.402,48,52"
		/>
	
		<circle clip-path="url(#SVGID_2_)" fill="#FFFFFF" stroke="#FFFFFF" stroke-width="6" stroke-miterlimit="10" cx="27" cy="52" r="21"/>
	<path clip-path="url(#SVGID_2_)" fill="none" stroke="#FFFFFF" stroke-width="7" stroke-miterlimit="10" d="M128.3,37.984
		C124.415,34.173,122,28.872,122,23c0-3.081,0.68-5.997,1.871-8.634L38.88,34.69C44.385,38.476,48,44.813,48,52
		c0,1.854-0.264,3.643-0.716,5.356L128.3,37.984z"/>
	<path clip-path="url(#SVGID_2_)" fill="none" stroke="#FFFFFF" stroke-width="5" stroke-miterlimit="10" d="M143,44
		c-3.62,0-7.026-0.917-10-2.53V49c0,5.5,4.5,10,10,10s10-4.5,10-10v-7.53C150.026,43.083,146.62,44,143,44z"/>
	<path clip-path="url(#SVGID_2_)" fill="#FFFFFF" stroke="#FFFFFF" stroke-miterlimit="10" d="M164,23c0,11.598-9.402,21-21,21
		s-21-9.402-21-21s9.402-21,21-21S164,11.402,164,23"/>
	
		<circle clip-path="url(#SVGID_2_)" fill="none" stroke="#FFFFFF" stroke-width="4" stroke-miterlimit="10" cx="143" cy="23" r="21"/>
	
		<path clip-path="url(#SVGID_2_)" fill="none" stroke="#FFFFFF" stroke-width="8" stroke-linecap="round" stroke-miterlimit="10" d="
		M131,46l-8.542,11.959c-3.922,5.49-4.213,12.783-0.741,18.568L131,92"/>
	
		<path clip-path="url(#SVGID_2_)" fill="none" stroke="#FFFFFF" stroke-width="8" stroke-linecap="round" stroke-miterlimit="10" d="
		M154.302,46l8.542,11.959c3.921,5.49,4.213,12.783,0.741,18.568L154.302,92"/>
	<path clip-path="url(#SVGID_2_)" fill="#FFFFFF" d="M108,172c0,4.418-3.582,8-8,8s-8-3.582-8-8s3.582-8,8-8S108,167.582,108,172"/>
	<circle clip-path="url(#SVGID_2_)" fill="none" stroke="#FFFFFF" stroke-miterlimit="10" cx="100" cy="172" r="8"/>
	<path clip-path="url(#SVGID_2_)" fill="#FFFFFF" d="M88,172c0,4.418-3.582,8-8,8s-8-3.582-8-8s3.582-8,8-8S88,167.582,88,172"/>
	<circle clip-path="url(#SVGID_2_)" fill="none" stroke="#FFFFFF" stroke-miterlimit="10" cx="80" cy="172" r="8"/>
	<path clip-path="url(#SVGID_2_)" fill="#FFFFFF" d="M68,172c0,4.418-3.582,8-8,8s-8-3.582-8-8s3.582-8,8-8S68,167.582,68,172"/>
	<circle clip-path="url(#SVGID_2_)" fill="none" stroke="#FFFFFF" stroke-miterlimit="10" cx="60" cy="172" r="8"/>
	<path clip-path="url(#SVGID_2_)" fill="#FFFFFF" d="M48,172c0,4.418-3.582,8-8,8s-8-3.582-8-8s3.582-8,8-8S48,167.582,48,172"/>
	<circle clip-path="url(#SVGID_2_)" fill="none" stroke="#FFFFFF" stroke-miterlimit="10" cx="40" cy="172" r="8"/>
	<path clip-path="url(#SVGID_2_)" fill="#FFFFFF" d="M128,172c0,4.418-3.582,8-8,8s-8-3.582-8-8s3.582-8,8-8S128,167.582,128,172"/>
	<circle clip-path="url(#SVGID_2_)" fill="none" stroke="#FFFFFF" stroke-miterlimit="10" cx="120" cy="172" r="8"/>
	<path clip-path="url(#SVGID_2_)" fill="#FFFFFF" d="M148,172c0,4.418-3.582,8-8,8s-8-3.582-8-8s3.582-8,8-8S148,167.582,148,172"/>
	<circle clip-path="url(#SVGID_2_)" fill="none" stroke="#FFFFFF" stroke-miterlimit="10" cx="140" cy="172" r="8"/>
	<path clip-path="url(#SVGID_2_)" fill="#FFFFFF" d="M168,172c0,4.418-3.582,8-8,8s-8-3.582-8-8s3.582-8,8-8S168,167.582,168,172"/>
	<circle clip-path="url(#SVGID_2_)" fill="none" stroke="#FFFFFF" stroke-miterlimit="10" cx="160" cy="172" r="8"/>
</g>
</svg>
