<?xml version="1.0" encoding="utf-8"?>
<!-- Generator: Adobe Illustrator 16.0.0, SVG Export Plug-In . SVG Version: 6.00 Build 0)  -->
<!DOCTYPE svg PUBLIC "-//W3C//DTD SVG 1.1//EN" "http://www.w3.org/Graphics/SVG/1.1/DTD/svg11.dtd">
<svg version="1.1" id="Capa_1" xmlns="http://www.w3.org/2000/svg" xmlns:xlink="http://www.w3.org/1999/xlink" x="0px" y="0px"
	 width="188.5px" height="174.5px" viewBox="0 0 188.5 174.5" enable-background="new 0 0 188.5 174.5" xml:space="preserve">
<g>
	<defs>
		<rect id="SVGID_1_" width="188.5" height="174.5"/>
	</defs>
	<clipPath id="SVGID_2_">
		<use xlink:href="#SVGID_1_"  overflow="visible"/>
	</clipPath>
	<path clip-path="url(#SVGID_2_)" fill="none" stroke="#FFFFFF" stroke-width="7" stroke-miterlimit="10" d="M57,62.5h70
		c29.547,0,53.5,23.953,53.5,53.5h-70C110.5,86.453,86.547,62.5,57,62.5S3.5,86.453,3.5,116H15v55h83v-55h9"/>
	<line clip-path="url(#SVGID_2_)" fill="none" stroke="#FFFFFF" stroke-miterlimit="10" x1="11.5" y1="171" x2="180.5" y2="171"/>
	<line clip-path="url(#SVGID_2_)" fill="none" stroke="#FFFFFF" stroke-miterlimit="10" x1="177" y1="117.5" x2="177" y2="173.5"/>
	
		<line clip-path="url(#SVGID_2_)" fill="none" stroke="#FFFFFF" stroke-width="7" stroke-miterlimit="10" x1="1.5" y1="171" x2="170.5" y2="171"/>
	
		<line clip-path="url(#SVGID_2_)" fill="none" stroke="#FFFFFF" stroke-width="7" stroke-miterlimit="10" x1="19.5" y1="171" x2="188.5" y2="171"/>
	
		<rect x="111" y="146" clip-path="url(#SVGID_2_)" fill="none" stroke="#FFFFFF" stroke-width="7" stroke-miterlimit="10" width="27.672" height="25"/>
	
		<rect x="138.672" y="133" clip-path="url(#SVGID_2_)" fill="none" stroke="#FFFFFF" stroke-width="7" stroke-miterlimit="10" width="25.828" height="38"/>
	<path clip-path="url(#SVGID_2_)" fill="#FFFFFF" d="M36,171h42v-50H36V171z M68,161.5H46v-7h22V161.5z M68,149.5H46v-7h22V149.5z
		 M68,137.5H46v-7h22V137.5z"/>
</g>
<g>
	<defs>
		<rect id="SVGID_3_" width="188.5" height="174.5"/>
	</defs>
	<clipPath id="SVGID_4_">
		<use xlink:href="#SVGID_3_"  overflow="visible"/>
	</clipPath>
	<path clip-path="url(#SVGID_4_)" fill="#FFFFFF" d="M74,62h59c0,0,44,11,44,51h-66C111,113,105,69,74,62"/>
	
		<path clip-path="url(#SVGID_4_)" fill="none" stroke="#FFFFFF" stroke-width="5" stroke-linejoin="round" stroke-miterlimit="10" d="
		M95.5,48H74.82C73.866,42.327,68.944,38,63,38c-0.516,0-1.021,0.043-1.52,0.106C61.269,28.901,53.756,21.5,44.5,21.5
		c-9.389,0-17,7.611-17,17c0,3.519,1.069,6.788,2.9,9.5H2"/>
	
		<path clip-path="url(#SVGID_4_)" fill="none" stroke="#FFFFFF" stroke-width="5" stroke-linejoin="round" stroke-miterlimit="10" d="
		M86,29h18.68c0.954-5.673,5.876-10,11.82-10c0.516,0,1.021,0.043,1.52,0.106C118.231,9.901,125.744,2.5,135,2.5
		c9.389,0,17,7.611,17,17c0,3.519-1.069,6.788-2.9,9.5h15.4"/>
</g>
</svg>
