<?xml version="1.0" encoding="utf-8"?>
<!-- Generator: Adobe Illustrator 16.0.0, SVG Export Plug-In . SVG Version: 6.00 Build 0)  -->
<!DOCTYPE svg PUBLIC "-//W3C//DTD SVG 1.1//EN" "http://www.w3.org/Graphics/SVG/1.1/DTD/svg11.dtd">
<svg version="1.1" id="Capa_1" xmlns="http://www.w3.org/2000/svg" xmlns:xlink="http://www.w3.org/1999/xlink" x="0px" y="0px"
	 width="377.188px" height="411.004px" viewBox="0 0 377.188 411.004" enable-background="new 0 0 377.188 411.004"
	 xml:space="preserve">
<g>
	<defs>
		<rect id="SVGID_1_" width="377.188" height="411.004"/>
	</defs>
	<clipPath id="SVGID_2_">
		<use xlink:href="#SVGID_1_"  overflow="visible"/>
	</clipPath>
	<path clip-path="url(#SVGID_2_)" fill="none" stroke="#FFFFFF" stroke-width="12" stroke-miterlimit="10" d="M146.65,333.854
		h102.485c13.208,0,25.951-4.879,35.781-13.701l60.378-54.185c1.559-1.399,2.86-3.058,3.848-4.905l19.916-37.263
		c5.094-9.531,0.687-21.371-9.4-25.251c-4.484-1.724-9.472-1.582-13.851,0.395l-18.662,8.429c-3.566,1.609-6.51,4.339-8.382,7.773
		l-6.593,12.085c-1.646,3.019-4.123,5.5-7.137,7.154l-31.884,15.968"/>
	<path clip-path="url(#SVGID_2_)" fill="none" stroke="#FFFFFF" stroke-width="12" stroke-miterlimit="10" d="M188.15,282.354
		h72.891c1.974,0,3.849-0.861,5.132-2.359c9.114-10.634,8.837-26.401-0.645-36.707c-4.065-4.418-9.795-6.934-15.799-6.934h-32.833
		c-6.385,0-12.655-1.684-18.181-4.883l-2.132-1.234c-5.524-3.198-11.796-4.883-18.18-4.883h-26.777
		c-13.88,0-27.323,4.854-38.001,13.719L77.15,269.354"/>
	<path clip-path="url(#SVGID_2_)" fill="none" stroke="#FFFFFF" stroke-width="12" stroke-miterlimit="10" d="M152.15,220.354
		v-11.604c0-3.366,1.7-6.503,4.519-8.342l16.001-10.436c1.618-1.055,3.509-1.617,5.44-1.617h20.567c2.846,0,5.555-1.216,7.443-3.343
		l6.572-7.393c3.591-4.04,9.75-4.478,13.876-0.986l2.796,2.366c1.798,1.521,4.077,2.356,6.433,2.356h15.079
		c2.126,0,4.196,0.68,5.908,1.941l13.73,10.118c1.712,1.261,3.781,1.941,5.907,1.941h21.122c2.921,0,5.695,1.283,7.588,3.509
		l14.018,16.491"/>
</g>
<polygon fill="#FFFFFF" points="152.15,208.354 152.15,225.354 178.15,225.354 199.15,231.354 245.15,236.354 265.15,242.354 
	269.15,248.354 292.15,241.354 308.15,228.354 311.15,214.354 303.15,197.354 273.15,193.354 251.15,181.354 225.15,174.354 
	211.15,181.354 184.15,188.354 168.15,193.354 "/>
<g>
	<defs>
		<rect id="SVGID_3_" width="377.188" height="411.004"/>
	</defs>
	<clipPath id="SVGID_4_">
		<use xlink:href="#SVGID_3_"  overflow="visible"/>
	</clipPath>
	
		<path clip-path="url(#SVGID_4_)" fill="none" stroke="#FFFFFF" stroke-width="17" stroke-linecap="round" stroke-miterlimit="10" d="
		M216.65,184.854c0,0,3-58,89-114"/>
	
		<path clip-path="url(#SVGID_4_)" fill="none" stroke="#FFFFFF" stroke-width="17" stroke-linecap="round" stroke-miterlimit="10" d="
		M258.65,151.854c0,0,52,12,78-49s0-90,0-90s-26,30-75,34s-51,64-34,92"/>
	
		<path clip-path="url(#SVGID_4_)" fill="none" stroke="#FFFFFF" stroke-width="17" stroke-linecap="round" stroke-miterlimit="10" d="
		M91.65,85.854c0,0,0.233,1.479,0.883,3.993c4.004,15.502,23.814,70.333,102.117,60.007C194.65,149.854,187.65,75.854,91.65,85.854z
		"/>
	<path clip-path="url(#SVGID_4_)" fill="#FFFFFF" d="M151.3,363.648l-35.355,35.355c-4.667,4.667-12.304,4.667-16.971,0L12,312.029
		c-4.667-4.667-4.667-12.304,0-16.971l35.355-35.355c4.667-4.667,12.304-4.667,16.971,0l86.974,86.975
		C155.967,351.345,155.967,358.981,151.3,363.648"/>
	
		<path clip-path="url(#SVGID_4_)" fill="none" stroke="#FFFFFF" stroke-width="17" stroke-linecap="round" stroke-miterlimit="10" d="
		M151.3,363.648l-35.355,35.355c-4.667,4.667-12.304,4.667-16.971,0L12,312.029c-4.667-4.667-4.667-12.304,0-16.971l35.355-35.355
		c4.667-4.667,12.304-4.667,16.971,0l86.974,86.975C155.967,351.345,155.967,358.981,151.3,363.648z"/>
</g>
</svg>
